<?xml version="1.0" encoding="utf-8"?>
<!-- Generator: Adobe Illustrator 16.0.0, SVG Export Plug-In . SVG Version: 6.00 Build 0)  -->
<!DOCTYPE svg PUBLIC "-//W3C//DTD SVG 1.1//EN" "http://www.w3.org/Graphics/SVG/1.1/DTD/svg11.dtd">
<svg version="1.1" id="Layer_1" xmlns="http://www.w3.org/2000/svg" xmlns:xlink="http://www.w3.org/1999/xlink" x="0px" y="0px"
	 width="109.032px" height="54.109px" viewBox="51.504 0 109.032 54.109" enable-background="new 51.504 0 109.032 54.109"
	 xml:space="preserve">
<path d="M154.196,221.541"/>
<path d="M154.196,221.541"/>
<path d="M154.196,221.541"/>
<path d="M154.196,221.541"/>
<path d="M154.196,221.541"/>
<path d="M154.196,221.541"/>
<path d="M154.196,221.541"/>
<path d="M154.196,221.541"/>
<path fill="#ECECEC" d="M160.261,2.336C159.659,0.797,158.177,0,156.522,0H55.518c-1.654,0-3.138,0.798-3.739,2.336
	c-0.601,1.541-0.195,3.184,1.021,4.304l50.502,46.436c0.768,0.707,1.743,1.033,2.718,1.033s1.951-0.367,2.72-1.074l50.502-46.387
	C160.457,5.528,160.863,3.877,160.261,2.336z"/>
</svg>
