<?xml version="1.0" encoding="utf-8"?>
<!-- Generator: Adobe Illustrator 16.0.0, SVG Export Plug-In . SVG Version: 6.00 Build 0)  -->
<!DOCTYPE svg PUBLIC "-//W3C//DTD SVG 1.1//EN" "http://www.w3.org/Graphics/SVG/1.1/DTD/svg11.dtd">
<svg version="1.1" id="Layer_1" xmlns="http://www.w3.org/2000/svg" xmlns:xlink="http://www.w3.org/1999/xlink" x="0px" y="0px"
	 width="56px" height="53.357px" viewBox="0 0 56 53.357" enable-background="new 0 0 56 53.357" xml:space="preserve">
<g>
	<path fill="#FFFFFF" d="M27.992,0L56,28.008l-5.25,5.251L27.99,10.498L5.248,33.24L0,27.992L27.992,0 M28.001,31.059L28.001,31.059
		c-1.987,0.001-3.855,0.774-5.26,2.179s-2.178,3.272-2.178,5.259s0.773,3.854,2.178,5.258c1.405,1.404,3.272,2.178,5.259,2.178
		s3.854-0.773,5.259-2.178c1.404-1.404,2.178-3.271,2.178-5.258s-0.773-3.854-2.179-5.259
		C31.854,31.833,29.986,31.059,28.001,31.059 M28,23.634c3.804,0,7.606,1.451,10.509,4.354c5.804,5.804,5.804,15.213,0,21.017
		c-2.901,2.902-6.706,4.354-10.509,4.354c-3.804,0-7.606-1.451-10.509-4.354c-5.804-5.804-5.804-15.213,0-21.017
		C20.393,25.086,24.197,23.635,28,23.634z"/>
</g>
</svg>
